<?xml version="1.0" standalone="no"?>
<!DOCTYPE svg PUBLIC "-//W3C//DTD SVG 20010904//EN"
 "http://www.w3.org/TR/2001/REC-SVG-20010904/DTD/svg10.dtd">
<svg version="1.0" xmlns="http://www.w3.org/2000/svg"
 width="70.000000pt" height="70.000000pt" viewBox="0 0 70.000000 70.000000"
 preserveAspectRatio="xMidYMid meet">
<metadata>
Created by potrace 1.11, written by Peter Selinger 2001-2013
</metadata>
<g transform="translate(0.000000,70.000000) scale(0.100000,-0.100000)"
fill="#000000" stroke="none">
<path d="M470 473 c-18 -71 -49 -193 -70 -273 -20 -80 -40 -157 -44 -173 l-6
-27 70 0 c56 0 70 3 70 15 0 11 12 15 50 15 35 0 49 -4 48 -12 -2 -9 15 -14
54 -16 l57 -3 -9 28 c-4 15 -19 64 -33 108 -48 157 -148 465 -151 465 -2 0
-18 -57 -36 -127z"/>
<path d="M340 341 c-41 -40 -132 -129 -202 -198 -71 -68 -128 -125 -128 -127
0 -8 301 -3 306 6 3 5 24 75 46 156 52 192 59 224 56 231 -2 3 -37 -27 -78
-68z"/>
</g>
</svg>
